<?xml version="1.0" encoding="UTF-8"?><svg id="a" xmlns="http://www.w3.org/2000/svg" viewBox="0 0 1000 1000"><defs><style>.b{fill:#e91e63;}</style></defs><g><g><path class="b" d="M713.98,268.87h-28.3v-122.67c0-29.89-24.31-54.2-54.2-54.2h-17.26v-28.3h17.26c45.49,0,82.5,37.01,82.5,82.5v122.67Z"/><path class="b" d="M314.31,268.87h-28.3v-122.67c0-45.49,37.01-82.5,82.5-82.5h17.26v28.3h-17.26c-29.89,0-54.2,24.31-54.2,54.2v122.67Z"/><path class="b" d="M572.18,99.07h-144.36c-11.72,0-21.23-9.5-21.23-21.23s9.5-21.23,21.23-21.23h144.36c11.72,0,21.23,9.5,21.23,21.23s-9.5,21.23-21.23,21.23Z"/></g><g><path class="b" d="M315.34,893.85v21.23c0,15.63,12.67,28.3,28.3,28.3s28.3-12.67,28.3-28.3v-21.23h-56.6Z"/><path class="b" d="M628.06,893.85v21.23c0,15.63,12.67,28.3,28.3,28.3s28.3-12.67,28.3-28.3v-21.23h-56.6Z"/></g></g><g><path class="b" d="M416.52,683.53l-182.75,182.75c11.54,5.53,24.41,8.71,38.06,8.71h247.02l-102.33-191.46Z"/><polygon class="b" points="183.5 520.2 183.5 749.92 333.21 600.21 183.5 520.2"/><path class="b" d="M728.16,241.76H271.84c-48.79,0-88.33,39.55-88.33,88.33v101.54l35.64,4.77,25.67-25.67c9.08-9.08,23.81-9.08,32.89,0,9.08,9.08,9.08,23.81,0,32.89l-.54,.54,187.07,25.02,69.57-69.57c13.42-13.42,28.31-25.09,44.24-34.75,15.93-9.66,32.89-17.3,50.42-22.66,15.15-4.63,28.98-.69,37.86,8.2,8.88,8.88,12.82,22.71,8.2,37.86h0c-5.36,17.54-13,34.5-22.66,50.42-9.66,15.93-21.33,30.82-34.75,44.24l-69.57,69.57,25.02,187.07,.54-.54c9.08-9.08,23.81-9.08,32.89,0,9.08,9.08,9.08,23.81,0,32.89l-25.67,25.67,10.35,77.4h137.48c48.79,0,88.33-39.55,88.33-88.33V330.1c0-48.79-39.55-88.33-88.33-88.33Z"/></g></svg>